<svg width="22" height="22" viewBox="0 0 22 22" fill="none" xmlns="http://www.w3.org/2000/svg">
<g id="Group">
<path id="Vector" d="M13.3479 7.92311C14.2147 7.92311 14.9174 7.23432 14.9174 6.38465C14.9174 5.53498 14.2147 4.84619 13.3479 4.84619C12.481 4.84619 11.7783 5.53498 11.7783 6.38465C11.7783 7.23432 12.481 7.92311 13.3479 7.92311Z" stroke="white" stroke-linecap="round" stroke-linejoin="round"/>
<path id="Vector_2" d="M7.06943 15.6154C7.50285 15.6154 7.8542 15.271 7.8542 14.8461C7.8542 14.4213 7.50285 14.0769 7.06943 14.0769C6.63602 14.0769 6.28467 14.4213 6.28467 14.8461C6.28467 15.271 6.63602 15.6154 7.06943 15.6154Z" stroke="white" stroke-linecap="round" stroke-linejoin="round"/>
<path id="Vector_3" d="M7.07002 10.2307C7.93685 10.2307 8.63955 9.54193 8.63955 8.69227C8.63955 7.8426 7.93685 7.15381 7.07002 7.15381C6.20319 7.15381 5.50049 7.8426 5.50049 8.69227C5.50049 9.54193 6.20319 10.2307 7.07002 10.2307Z" stroke="white" stroke-linecap="round" stroke-linejoin="round"/>
<path id="Vector_4" d="M14.9486 19.123C14.9311 18.8246 14.8253 18.5377 14.6441 18.2972C14.4629 18.0568 14.2142 17.8733 13.9284 17.7692C13.2185 17.5405 12.6151 17.0711 12.2267 16.4453C11.8383 15.8196 11.6904 15.0785 11.8096 14.3554C11.9288 13.6324 12.3072 12.9747 12.8768 12.5006C13.4464 12.0265 14.1699 11.7672 14.9172 11.7692H17.8522C18.3556 11.7706 18.8519 11.6533 19.2994 11.4272C19.7468 11.201 20.1322 10.8728 20.4231 10.47C20.7139 10.0673 20.9017 9.6019 20.9705 9.1131C21.0394 8.6243 20.9873 8.12645 20.8186 7.66153C20.1944 5.93379 19.0977 4.40746 17.6483 3.2493C16.199 2.09114 14.4528 1.3457 12.6006 1.09442C10.7483 0.843146 8.86123 1.0957 7.14548 1.82449C5.42974 2.55328 3.95134 3.73028 2.87182 5.22688C1.79229 6.72348 1.15317 8.48212 1.02427 10.3107C0.895372 12.1392 1.28166 13.9673 2.14093 15.5952C3.0002 17.2231 4.29939 18.5882 5.89657 19.5414C7.49375 20.4946 9.32746 20.9991 11.1974 21C12.1208 21.0025 13.0401 20.8782 13.9284 20.6307C14.2546 20.5411 14.5371 20.3396 14.7244 20.0628C14.9117 19.786 14.9912 19.4525 14.9486 19.123V19.123Z" stroke="white" stroke-linecap="round" stroke-linejoin="round"/>
</g>
</svg>
