<svg width="20" height="20" viewBox="0 0 20 20" fill="none" xmlns="http://www.w3.org/2000/svg">
<path d="M6.66675 18.5999C6.43341 18.5999 6.19173 18.5416 5.97507 18.425C5.50007 18.175 5.20841 17.6749 5.20841 17.1416V15.9583C2.69175 15.7 1.04175 13.8499 1.04175 11.1999V6.19999C1.04175 3.33333 2.96675 1.40833 5.83341 1.40833H14.1667C17.0334 1.40833 18.9584 3.33333 18.9584 6.19999V11.1999C18.9584 14.0666 17.0334 15.9916 14.1667 15.9916H11.0251L7.47506 18.3583C7.23339 18.5167 6.95008 18.5999 6.66675 18.5999ZM5.83341 2.64998C3.68341 2.64998 2.29175 4.04165 2.29175 6.19165V11.1917C2.29175 13.3417 3.68341 14.7334 5.83341 14.7334C6.17508 14.7334 6.45841 15.0167 6.45841 15.3584V17.1334C6.45841 17.2417 6.52509 17.2917 6.56675 17.3167C6.60842 17.3417 6.69176 17.3667 6.78343 17.3083L10.4918 14.8417C10.5918 14.775 10.7168 14.7334 10.8418 14.7334H14.1751C16.3251 14.7334 17.7168 13.3417 17.7168 11.1917V6.19165C17.7168 4.04165 16.3251 2.64998 14.1751 2.64998H5.83341V2.64998Z" fill="white"/>
<path d="M9.99977 10.0916C9.6581 10.0916 9.37477 9.80822 9.37477 9.46655V9.29159C9.37477 8.32492 10.0831 7.84991 10.3498 7.66658C10.6581 7.45824 10.7581 7.31658 10.7581 7.09991C10.7581 6.68325 10.4164 6.34155 9.99977 6.34155C9.5831 6.34155 9.24146 6.68325 9.24146 7.09991C9.24146 7.44158 8.95812 7.72491 8.61646 7.72491C8.27479 7.72491 7.99146 7.44158 7.99146 7.09991C7.99146 5.99158 8.89143 5.09155 9.99977 5.09155C11.1081 5.09155 12.0081 5.99158 12.0081 7.09991C12.0081 8.04991 11.3081 8.5249 11.0498 8.6999C10.7248 8.91657 10.6248 9.05825 10.6248 9.29159V9.46655C10.6248 9.81655 10.3414 10.0916 9.99977 10.0916Z" fill="white"/>
<path d="M10 12.1667C9.65 12.1667 9.375 11.8834 9.375 11.5417C9.375 11.2001 9.65833 10.9167 10 10.9167C10.3417 10.9167 10.625 11.2001 10.625 11.5417C10.625 11.8834 10.35 12.1667 10 12.1667Z" fill="white"/>
</svg>
