<svg width="21" height="20" viewBox="0 0 21 20" fill="none" xmlns="http://www.w3.org/2000/svg">
<path d="M18 4.98332C15.225 4.70832 12.4333 4.56665 9.65 4.56665C8 4.56665 6.35 4.64998 4.7 4.81665L3 4.98332" stroke="white" stroke-linecap="round" stroke-linejoin="round"/>
<path d="M7.5835 4.14175L7.76683 3.05008C7.90016 2.25841 8.00016 1.66675 9.4085 1.66675H11.5918C13.0002 1.66675 13.1085 2.29175 13.2335 3.05841L13.4168 4.14175" stroke="white" stroke-linecap="round" stroke-linejoin="round"/>
<path d="M16.2082 7.6167L15.6665 16.0084C15.5748 17.3167 15.4998 18.3334 13.1748 18.3334H7.82484C5.49984 18.3334 5.42484 17.3167 5.33317 16.0084L4.7915 7.6167" stroke="white" stroke-linecap="round" stroke-linejoin="round"/>
<path d="M9.1084 13.75H11.8834" stroke="white" stroke-linecap="round" stroke-linejoin="round"/>
<path d="M8.4165 10.4167H12.5832" stroke="white" stroke-linecap="round" stroke-linejoin="round"/>
</svg>
