<svg width="18" height="18" viewBox="0 0 18 18" fill="none" xmlns="http://www.w3.org/2000/svg">
<path d="M12.39 4.23755L10.065 2.43755C9.76504 2.13755 9.09004 1.98755 8.64004 1.98755H5.79004C4.89004 1.98755 3.91504 2.66255 3.69004 3.56255L1.89004 9.03755C1.51504 10.0875 2.19004 10.9875 3.31504 10.9875H6.31504C6.76504 10.9875 7.14004 11.3625 7.06504 11.8875L6.69004 14.2875C6.54004 14.9625 6.99004 15.7125 7.66504 15.9375C8.26504 16.1625 9.01504 15.8625 9.31504 15.4125L12.39 10.8375" stroke="white" stroke-miterlimit="10"/>
<path d="M16.2148 4.2375V11.5875C16.2148 12.6375 15.7648 13.0125 14.7148 13.0125H13.9648C12.9148 13.0125 12.4648 12.6375 12.4648 11.5875V4.2375C12.4648 3.1875 12.9148 2.8125 13.9648 2.8125H14.7148C15.7648 2.8125 16.2148 3.1875 16.2148 4.2375Z" stroke="white" stroke-linecap="round" stroke-linejoin="round"/>
</svg>
