<svg width="20" height="20" viewBox="0 0 20 20" fill="none" xmlns="http://www.w3.org/2000/svg">
<path d="M9.1665 1.66675H7.49984C3.33317 1.66675 1.6665 3.33341 1.6665 7.50008V12.5001C1.6665 16.6667 3.33317 18.3334 7.49984 18.3334H12.4998C16.6665 18.3334 18.3332 16.6667 18.3332 12.5001V10.8334" stroke="white" stroke-linecap="round" stroke-linejoin="round"/>
<path d="M13.3666 2.51663L6.7999 9.0833C6.5499 9.3333 6.2999 9.82497 6.2499 10.1833L5.89157 12.6916C5.75823 13.6 6.3999 14.2333 7.30823 14.1083L9.81657 13.75C10.1666 13.7 10.6582 13.45 10.9166 13.2L17.4832 6.6333C18.6166 5.49997 19.1499 4.1833 17.4832 2.51663C15.8166 0.849966 14.4999 1.3833 13.3666 2.51663Z" stroke="white" stroke-miterlimit="10" stroke-linecap="round" stroke-linejoin="round"/>
<path d="M12.4253 3.45825C12.9836 5.44992 14.542 7.00825 16.542 7.57492" stroke="white" stroke-miterlimit="10" stroke-linecap="round" stroke-linejoin="round"/>
</svg>
