<svg width="21" height="21" viewBox="0 0 21 21" fill="none" xmlns="http://www.w3.org/2000/svg">
<path d="M8.37432 10.9023L5.70557 13.5711" stroke="white" stroke-width="1.5" stroke-miterlimit="10" stroke-linecap="round" stroke-linejoin="round"/>
<path d="M5.73047 10.9285L8.39922 13.5972" stroke="white" stroke-width="1.5" stroke-miterlimit="10" stroke-linecap="round" stroke-linejoin="round"/>
<path d="M11.8379 12.2502H11.8483" stroke="white" stroke-width="1.5" stroke-miterlimit="10" stroke-linecap="round" stroke-linejoin="round"/>
<path d="M15.2861 12.2502H15.2965" stroke="white" stroke-width="1.5" stroke-miterlimit="10" stroke-linecap="round" stroke-linejoin="round"/>
<path d="M13.562 13.9839V13.9648" stroke="white" stroke-width="1.5" stroke-miterlimit="10" stroke-linecap="round" stroke-linejoin="round"/>
<path d="M13.562 10.5367V10.5176" stroke="white" stroke-width="1.5" stroke-miterlimit="10" stroke-linecap="round" stroke-linejoin="round"/>
<path d="M8.125 19H13.375C17.75 19 19.5 17.25 19.5 12.875V11.125C19.5 6.75 17.75 5 13.375 5H8.125C3.75 5 2 6.75 2 11.125V12.875C2 17.25 3.75 19 8.125 19Z" stroke="white" stroke-width="1.5" stroke-linecap="round" stroke-linejoin="round"/>
<path d="M11.3837 1.75024L11.3749 2.63399C11.3662 3.11524 10.9812 3.50024 10.4999 3.50024H10.4737C9.99242 3.50024 9.60742 3.89399 9.60742 4.37524C9.60742 4.85649 10.0012 5.25024 10.4824 5.25024H11.3574" stroke="white" stroke-width="1.5" stroke-linecap="round" stroke-linejoin="round"/>
</svg>
