<svg width="20" height="20" viewBox="0 0 20 20" fill="none" xmlns="http://www.w3.org/2000/svg">
<path d="M10 0C4.475 0 0 4.44481 0 9.93253C0 14.3277 2.8625 18.04 6.8375 19.356C7.3375 19.4429 7.525 19.145 7.525 18.8842C7.525 18.6483 7.5125 17.8661 7.5125 17.0343C5 17.4937 4.35 16.4259 4.15 15.8672C4.0375 15.5817 3.55 14.7002 3.125 14.4643C2.775 14.278 2.275 13.8186 3.1125 13.8062C3.9 13.7938 4.4625 14.5263 4.65 14.8243C5.55 16.3266 6.9875 15.9045 7.5625 15.6437C7.65 14.9981 7.9125 14.5636 8.2 14.3153C5.975 14.067 3.65 13.2103 3.65 9.41108C3.65 8.33091 4.0375 7.43698 4.675 6.74171C4.575 6.49339 4.225 5.47531 4.775 4.10959C4.775 4.10959 5.6125 3.84886 7.525 5.12767C8.325 4.90419 9.175 4.79245 10.025 4.79245C10.875 4.79245 11.725 4.90419 12.525 5.12767C14.4375 3.83644 15.275 4.10959 15.275 4.10959C15.825 5.47531 15.475 6.49339 15.375 6.74171C16.0125 7.43698 16.4 8.3185 16.4 9.41108C16.4 13.2227 14.0625 14.067 11.8375 14.3153C12.2 14.6257 12.5125 15.2216 12.5125 16.1528C12.5125 17.4813 12.5 18.549 12.5 18.8842C12.5 19.145 12.6875 19.4554 13.1875 19.356C17.2581 17.9911 19.9989 14.1998 20 9.93253C20 4.44481 15.525 0 10 0Z" fill="white"/>
</svg>
