<svg width="20" height="20" viewBox="0 0 20 20" fill="none" xmlns="http://www.w3.org/2000/svg">
<path d="M4.43242 12.0862L3.73625 14.6851L1.19176 14.7389C0.431328 13.3285 0 11.7147 0 9.9999C0 8.34166 0.403281 6.77791 1.11812 5.401H1.11867L3.38398 5.81631L4.37633 8.06803C4.16863 8.67354 4.05543 9.32354 4.05543 9.9999C4.05551 10.734 4.18848 11.4373 4.43242 12.0862Z" fill="#FBBB00"/>
<path d="M19.8254 8.13184C19.9402 8.73676 20.0001 9.36148 20.0001 9.99996C20.0001 10.7159 19.9249 11.4143 19.7815 12.0879C19.2947 14.3802 18.0227 16.3818 16.2606 17.7983L16.26 17.7978L13.4068 17.6522L13.0029 15.1313C14.1722 14.4456 15.0859 13.3725 15.5672 12.0879H10.22V8.13184H15.6452H19.8254Z" fill="#518EF8"/>
<path d="M16.26 17.7979L16.2606 17.7985C14.5468 19.176 12.3699 20.0001 10.0001 20.0001C6.19189 20.0001 2.88092 17.8716 1.19189 14.7392L4.43256 12.0864C5.27705 14.3403 7.45123 15.9447 10.0001 15.9447C11.0957 15.9447 12.1221 15.6485 13.0029 15.1315L16.26 17.7979Z" fill="#28B446"/>
<path d="M16.3828 2.30219L13.1432 4.95437C12.2317 4.38461 11.1542 4.05547 9.99979 4.05547C7.39319 4.05547 5.17835 5.73347 4.37616 8.06812L1.11847 5.40109H1.11792C2.78222 2.1923 6.13495 0 9.99979 0C12.4262 0 14.6509 0.864296 16.3828 2.30219Z" fill="#F14336"/>
</svg>
