<svg width="20" height="20" viewBox="0 0 20 20" fill="none" xmlns="http://www.w3.org/2000/svg">
<path d="M4.1001 16.9L5.5751 18.0417C5.76677 18.2334 6.19176 18.325 6.48343 18.325H8.29176C8.86676 18.325 9.48343 17.9 9.6251 17.325L10.7668 13.85C11.0084 13.1833 10.5751 12.6083 9.85843 12.6083H7.9501C7.66677 12.6083 7.4251 12.3666 7.4751 12.0333L7.71677 10.5083C7.80843 10.0833 7.5251 9.59998 7.1001 9.45831C6.71676 9.31665 6.24177 9.50833 6.0501 9.79167L4.1001 12.7" stroke="white" stroke-miterlimit="10"/>
<path d="M1.66675 16.9V12.2334C1.66675 11.5667 1.95008 11.325 2.61675 11.325H3.09175C3.75841 11.325 4.04175 11.5667 4.04175 12.2334V16.9C4.04175 17.5667 3.75841 17.8083 3.09175 17.8083H2.61675C1.95008 17.8083 1.66675 17.575 1.66675 16.9Z" stroke="white" stroke-linecap="round" stroke-linejoin="round"/>
<path d="M15.9 3.10002L14.425 1.95835C14.2333 1.76669 13.8083 1.67505 13.5167 1.67505H11.7084C11.1334 1.67505 10.5167 2.10001 10.375 2.67501L9.23335 6.15004C8.99168 6.81671 9.42501 7.3917 10.1417 7.3917H12.05C12.3333 7.3917 12.575 7.63342 12.525 7.96676L12.2833 9.49172C12.1917 9.91672 12.475 10.4001 12.9 10.5417C13.2834 10.6834 13.7583 10.4917 13.95 10.2084L15.9 7.30005" stroke="white" stroke-miterlimit="10"/>
<path d="M18.3333 3.09996V7.7666C18.3333 8.43327 18.0499 8.67501 17.3833 8.67501H16.9083C16.2416 8.67501 15.9583 8.43327 15.9583 7.7666V3.09996C15.9583 2.43329 16.2416 2.19165 16.9083 2.19165H17.3833C18.0499 2.19165 18.3333 2.42496 18.3333 3.09996Z" stroke="white" stroke-linecap="round" stroke-linejoin="round"/>
</svg>
