<svg width="140" height="39" viewBox="0 0 140 39" fill="none" xmlns="http://www.w3.org/2000/svg">
<path d="M42.2955 31V7.72727H51.0227C52.8106 7.72727 54.3106 8.03788 55.5227 8.65909C56.7424 9.2803 57.6629 10.1515 58.2841 11.2727C58.9129 12.3864 59.2273 13.6856 59.2273 15.1705C59.2273 16.6629 58.9091 17.9583 58.2727 19.0568C57.6439 20.1477 56.7159 20.9924 55.4886 21.5909C54.2614 22.1818 52.7538 22.4773 50.9659 22.4773H44.75V18.9773H50.3977C51.4432 18.9773 52.2992 18.8333 52.9659 18.5455C53.6326 18.25 54.125 17.822 54.4432 17.2614C54.7689 16.6932 54.9318 15.9962 54.9318 15.1705C54.9318 14.3447 54.7689 13.6402 54.4432 13.0568C54.1174 12.4659 53.6212 12.0189 52.9545 11.7159C52.2879 11.4053 51.428 11.25 50.375 11.25H46.5114V31H42.2955ZM54.3182 20.4545L60.0795 31H55.375L49.7159 20.4545H54.3182ZM67.9489 31.3523C66.8428 31.3523 65.8466 31.1553 64.9602 30.7614C64.0814 30.3598 63.3845 29.7689 62.8693 28.9886C62.3617 28.2083 62.108 27.2462 62.108 26.1023C62.108 25.1174 62.2898 24.303 62.6534 23.6591C63.017 23.0152 63.5133 22.5 64.142 22.1136C64.7708 21.7273 65.4792 21.4356 66.267 21.2386C67.0625 21.0341 67.8845 20.8864 68.733 20.7955C69.7557 20.6894 70.5852 20.5947 71.2216 20.5114C71.858 20.4205 72.3201 20.2841 72.608 20.1023C72.9034 19.9129 73.0511 19.6212 73.0511 19.2273V19.1591C73.0511 18.303 72.7973 17.6402 72.2898 17.1705C71.7822 16.7008 71.0511 16.4659 70.0966 16.4659C69.089 16.4659 68.2898 16.6856 67.6989 17.125C67.1155 17.5644 66.7216 18.0833 66.517 18.6818L62.6761 18.1364C62.9792 17.0758 63.4792 16.1894 64.1761 15.4773C64.8731 14.7576 65.7254 14.2197 66.733 13.8636C67.7405 13.5 68.8542 13.3182 70.0739 13.3182C70.9148 13.3182 71.7519 13.4167 72.5852 13.6136C73.4186 13.8106 74.1799 14.1364 74.8693 14.5909C75.5587 15.0379 76.1117 15.6477 76.5284 16.4205C76.9527 17.1932 77.1648 18.1591 77.1648 19.3182V31H73.2102V28.6023H73.0739C72.8239 29.0871 72.4716 29.5417 72.017 29.9659C71.5701 30.3826 71.0057 30.7197 70.3239 30.9773C69.6496 31.2273 68.858 31.3523 67.9489 31.3523ZM69.017 28.3295C69.8428 28.3295 70.5587 28.1667 71.1648 27.8409C71.7708 27.5076 72.2367 27.0682 72.5625 26.5227C72.8958 25.9773 73.0625 25.3826 73.0625 24.7386V22.6818C72.9337 22.7879 72.714 22.8864 72.4034 22.9773C72.1004 23.0682 71.7595 23.1477 71.3807 23.2159C71.0019 23.2841 70.6269 23.3447 70.2557 23.3977C69.8845 23.4508 69.5625 23.4962 69.2898 23.5341C68.6761 23.6174 68.1269 23.7538 67.642 23.9432C67.1572 24.1326 66.7746 24.3977 66.4943 24.7386C66.214 25.072 66.0739 25.5038 66.0739 26.0341C66.0739 26.7917 66.3504 27.3636 66.9034 27.75C67.4564 28.1364 68.161 28.3295 69.017 28.3295ZM81.483 31V7.72727H85.5966V16.4318H85.767C85.9792 16.0076 86.2784 15.5568 86.6648 15.0795C87.0511 14.5947 87.5739 14.1818 88.233 13.8409C88.892 13.4924 89.733 13.3182 90.7557 13.3182C92.1042 13.3182 93.3201 13.6629 94.4034 14.3523C95.4943 15.0341 96.358 16.0455 96.9943 17.3864C97.6383 18.7197 97.9602 20.3561 97.9602 22.2955C97.9602 24.2121 97.6458 25.8409 97.017 27.1818C96.3883 28.5227 95.5322 29.5455 94.4489 30.25C93.3655 30.9545 92.1383 31.3068 90.767 31.3068C89.767 31.3068 88.9375 31.1402 88.2784 30.8068C87.6193 30.4735 87.089 30.072 86.6875 29.6023C86.2936 29.125 85.9867 28.6742 85.767 28.25H85.5284V31H81.483ZM85.517 22.2727C85.517 23.4015 85.6761 24.3902 85.9943 25.2386C86.3201 26.0871 86.786 26.75 87.392 27.2273C88.0057 27.697 88.7481 27.9318 89.6193 27.9318C90.5284 27.9318 91.2898 27.6894 91.9034 27.2045C92.517 26.7121 92.9792 26.0417 93.2898 25.1932C93.608 24.3371 93.767 23.3636 93.767 22.2727C93.767 21.1894 93.6117 20.2273 93.3011 19.3864C92.9905 18.5455 92.5284 17.8864 91.9148 17.4091C91.3011 16.9318 90.536 16.6932 89.6193 16.6932C88.7405 16.6932 87.9943 16.9242 87.3807 17.3864C86.767 17.8485 86.3011 18.4962 85.983 19.3295C85.6723 20.1629 85.517 21.1439 85.517 22.2727ZM101.639 31V7.72727H105.753V16.4318H105.923C106.135 16.0076 106.435 15.5568 106.821 15.0795C107.207 14.5947 107.73 14.1818 108.389 13.8409C109.048 13.4924 109.889 13.3182 110.912 13.3182C112.26 13.3182 113.476 13.6629 114.56 14.3523C115.651 15.0341 116.514 16.0455 117.151 17.3864C117.795 18.7197 118.116 20.3561 118.116 22.2955C118.116 24.2121 117.802 25.8409 117.173 27.1818C116.545 28.5227 115.688 29.5455 114.605 30.25C113.522 30.9545 112.295 31.3068 110.923 31.3068C109.923 31.3068 109.094 31.1402 108.435 30.8068C107.776 30.4735 107.245 30.072 106.844 29.6023C106.45 29.125 106.143 28.6742 105.923 28.25H105.685V31H101.639ZM105.673 22.2727C105.673 23.4015 105.832 24.3902 106.151 25.2386C106.476 26.0871 106.942 26.75 107.548 27.2273C108.162 27.697 108.904 27.9318 109.776 27.9318C110.685 27.9318 111.446 27.6894 112.06 27.2045C112.673 26.7121 113.135 26.0417 113.446 25.1932C113.764 24.3371 113.923 23.3636 113.923 22.2727C113.923 21.1894 113.768 20.2273 113.457 19.3864C113.147 18.5455 112.685 17.8864 112.071 17.4091C111.457 16.9318 110.692 16.6932 109.776 16.6932C108.897 16.6932 108.151 16.9242 107.537 17.3864C106.923 17.8485 106.457 18.4962 106.139 19.3295C105.829 20.1629 105.673 21.1439 105.673 22.2727ZM121.614 31V13.5455H125.727V31H121.614ZM123.682 11.0682C123.03 11.0682 122.47 10.8523 122 10.4205C121.53 9.98106 121.295 9.45454 121.295 8.84091C121.295 8.2197 121.53 7.69318 122 7.26136C122.47 6.82197 123.03 6.60227 123.682 6.60227C124.341 6.60227 124.902 6.82197 125.364 7.26136C125.833 7.69318 126.068 8.2197 126.068 8.84091C126.068 9.45454 125.833 9.98106 125.364 10.4205C124.902 10.8523 124.341 11.0682 123.682 11.0682ZM138.673 13.5455V16.7273H128.639V13.5455H138.673ZM131.116 9.36364H135.23V25.75C135.23 26.303 135.313 26.7273 135.48 27.0227C135.654 27.3106 135.882 27.5076 136.162 27.6136C136.442 27.7197 136.753 27.7727 137.094 27.7727C137.351 27.7727 137.586 27.7538 137.798 27.7159C138.018 27.678 138.185 27.6439 138.298 27.6136L138.991 30.8295C138.772 30.9053 138.457 30.9886 138.048 31.0795C137.647 31.1705 137.154 31.2235 136.571 31.2386C135.541 31.2689 134.613 31.1136 133.787 30.7727C132.961 30.4242 132.306 29.8864 131.821 29.1591C131.344 28.4318 131.109 27.5227 131.116 26.4318V9.36364Z" fill="white"/>
<path fill-rule="evenodd" clip-rule="evenodd" d="M3.59224 0.198113C2.16056 0.628888 0.90707 1.88927 0.343136 3.46533C-0.26893 5.17522 -0.181712 5.67684 1.59714 10.6889L3.20821 15.2281L2.61714 16.3332C0.909972 19.5246 0.0405165 24.8563 0.757552 27.7347C2.01309 32.7744 6.69951 35.6771 14.0655 35.9776C18.3049 36.1505 22.2485 35.3175 24.8362 33.7022C26.1639 32.8735 27.7852 31.1468 28.4337 29.8709C29.3231 28.1208 29.5651 26.8192 29.4596 24.3516C29.3434 21.6341 28.7656 19.2477 27.6557 16.9007L26.8323 15.1599L28.4475 10.5658C29.9678 6.24127 30.0579 5.90829 29.9809 4.89737C29.6552 0.615861 24.8017 -1.53212 21.7658 1.26167C20.5483 2.38232 20.1875 3.30972 19.5485 6.96292C19.2405 8.72295 18.9495 10.2041 18.9016 10.254C18.8536 10.3042 18.3987 10.2601 17.8908 10.1562C16.6998 9.91249 13.3076 9.91249 12.1176 10.1561C11.6097 10.2601 11.1588 10.3085 11.1159 10.2635C11.0729 10.2185 10.7839 8.73366 10.4738 6.96381C9.83119 3.29633 9.50621 2.45477 8.29044 1.31199C7.04634 0.142437 5.21816 -0.291014 3.59224 0.198113ZM6.35064 2.24438C7.84803 3.03402 8.0153 3.44998 8.88168 8.53879C9.23295 10.602 9.54632 11.957 9.72622 12.1893L10.0123 12.5585L11.6976 12.2218C13.8803 11.7853 16.3427 11.7871 18.3924 12.2264L19.9885 12.5685L20.2792 12.1932C20.4515 11.9705 20.7296 10.8825 20.9624 9.51919C21.7972 4.63256 21.9679 3.91091 22.4429 3.25975C24.1611 0.904412 27.8788 1.97028 28.1099 4.88471C28.1768 5.72841 28.017 6.29802 26.544 10.4685C25.642 13.0228 24.9038 15.2763 24.9038 15.4762C24.9038 15.676 25.1666 16.2479 25.488 16.7471C26.9463 19.0128 27.9336 23.5056 27.6041 26.3765C27.2117 29.7949 24.6172 32.2742 20.1766 33.4743C18.07 34.0435 14.2746 34.2413 11.8925 33.906C6.40611 33.1335 2.85746 30.3084 2.40173 26.3503C2.06037 23.3853 3.16622 18.5881 4.6643 16.5345C4.90649 16.2024 5.10466 15.7362 5.10466 15.4983C5.10466 15.2604 4.37499 13.0039 3.48318 10.4839C2.41232 7.45793 1.8617 5.65382 1.8617 5.17129C1.8617 4.3888 2.3053 3.30811 2.82997 2.81185C3.70336 1.98617 5.3559 1.71992 6.35064 2.24438ZM5.70102 22.7014C5.40369 22.9687 5.22277 23.3482 5.1603 23.8359C5.07871 24.4716 5.13436 24.6484 5.58001 25.1698C6.0091 25.672 6.21204 25.7712 6.81148 25.7712C7.41091 25.7712 7.61385 25.672 8.04295 25.1698C8.4886 24.6484 8.54424 24.4716 8.46266 23.8359C8.3396 22.8761 7.71985 22.2995 6.81148 22.2995C6.36907 22.2995 5.99869 22.4335 5.70102 22.7014ZM22.0865 22.7014C21.7892 22.9687 21.6083 23.3482 21.5458 23.8359C21.4642 24.4716 21.5198 24.6484 21.9655 25.1698C22.3946 25.672 22.5975 25.7712 23.197 25.7712C23.7909 25.7712 23.9999 25.6713 24.4091 25.1923C24.6812 24.8741 24.9038 24.4102 24.9038 24.1616C24.9038 23.5699 24.4738 22.7149 24.0598 22.4833C23.4929 22.166 22.5682 22.2681 22.0865 22.7014ZM13.7506 26.7302C13.3865 27.1508 13.3918 27.6258 13.7652 28.0575C14.0494 28.3857 14.0448 28.4158 13.6611 28.7406C13.4403 28.9276 13.1699 29.0805 13.0605 29.0805C12.673 29.0805 12.1026 28.5197 12.0972 28.1335C12.0888 27.5225 11.6945 27.1176 11.1084 27.1176C9.65999 27.1176 10.179 29.7419 11.8007 30.6186C12.5845 31.0424 13.8001 31.0105 14.5168 30.5474C15.0535 30.2005 15.1385 30.1898 15.3756 30.4376C15.7281 30.8059 16.7791 31.0385 17.5223 30.9123C18.3713 30.7683 19.5445 29.5602 19.7043 28.6653C19.8866 27.6447 19.5836 27.0805 18.8913 27.151C18.3528 27.2059 18.2905 27.2807 17.7326 28.5452C17.6675 28.6924 17.4095 28.8892 17.1591 28.9826C16.7861 29.1214 16.6366 29.0821 16.334 28.7657C15.9858 28.4015 15.981 28.3601 16.2524 28.0468C16.6508 27.5864 16.6124 27.0121 16.1609 26.6816C15.6134 26.2807 14.1136 26.3108 13.7506 26.7302Z" fill="#8B5CF6"/>
</svg>
