<svg width="20" height="20" viewBox="0 0 20 20" fill="none" xmlns="http://www.w3.org/2000/svg">
<g id="interface-help-customer-support-4--customer-headset-help-phone-support" clip-path="url(#clip0_81_584)">
<path id="Vector" d="M3.5715 10.7144H5.00007C5.37895 10.7144 5.74231 10.8649 6.01022 11.1328C6.27813 11.4007 6.42864 11.764 6.42864 12.1429V17.8572C6.42864 18.2361 6.27813 18.5995 6.01022 18.8674C5.74231 19.1353 5.37895 19.2858 5.00007 19.2858H2.14293C1.76405 19.2858 1.40068 19.1353 1.13277 18.8674C0.864865 18.5995 0.714355 18.2361 0.714355 17.8572V10.0001C0.714355 7.53735 1.69267 5.17549 3.43408 3.43408C5.17549 1.69267 7.53735 0.714355 10.0001 0.714355C12.4628 0.714355 14.8247 1.69267 16.5661 3.43408C18.3075 5.17549 19.2858 7.53735 19.2858 10.0001V17.8572C19.2858 18.2361 19.1353 18.5995 18.8674 18.8674C18.5995 19.1353 18.2361 19.2858 17.8572 19.2858H15.0001C14.6212 19.2858 14.2578 19.1353 13.9899 18.8674C13.722 18.5995 13.5715 18.2361 13.5715 17.8572V12.1429C13.5715 11.764 13.722 11.4007 13.9899 11.1328C14.2578 10.8649 14.6212 10.7144 15.0001 10.7144H16.4286" stroke="white" stroke-linecap="round" stroke-linejoin="round"/>
</g>
<defs>
<clipPath id="clip0_81_584">
<rect width="20" height="20" fill="white"/>
</clipPath>
</defs>
</svg>
