<svg width="20" height="20" viewBox="0 0 20 20" fill="none" xmlns="http://www.w3.org/2000/svg">
<path d="M17.1582 8.79176V5.93342C17.1582 4.90842 16.3749 3.77509 15.4166 3.41676L11.2582 1.85842C10.5666 1.60009 9.43322 1.60009 8.74155 1.85842L4.58322 3.42509C3.62489 3.78342 2.84155 4.91676 2.84155 5.93342V12.1251C2.84155 13.1084 3.49155 14.4001 4.28322 14.9918L7.86655 17.6668C8.44989 18.1168 9.22489 18.3334 9.99989 18.3334" stroke="white" stroke-linecap="round" stroke-linejoin="round"/>
<path d="M13.3333 16.6667C15.1743 16.6667 16.6667 15.1743 16.6667 13.3333C16.6667 11.4924 15.1743 10 13.3333 10C11.4924 10 10 11.4924 10 13.3333C10 15.1743 11.4924 16.6667 13.3333 16.6667Z" stroke="white" stroke-linecap="round" stroke-linejoin="round"/>
<path d="M17.4962 17.5H17.5037" stroke="white" stroke-linecap="round" stroke-linejoin="round"/>
</svg>
