<svg width="22" height="22" viewBox="0 0 22 22" fill="none" xmlns="http://www.w3.org/2000/svg">
<path id="Vector" d="M1.11169 7.70366L3.11149 10.2897C3.41758 10.6781 3.41758 11.3219 3.11149 11.7103L1.11169 14.2963C0.836204 14.8957 1.11169 15.6282 1.70346 15.8502L3.06047 16.3385C3.38697 16.4606 3.86651 16.3385 4.11139 16.0721L6.43768 13.5527C6.60093 13.364 6.92743 13.2198 7.1621 13.2198L10.07 13.2198C10.4985 13.2198 10.7026 13.5638 10.5393 13.9967L8.37627 19.4462C8.03956 20.3008 8.45789 21 9.31495 21L10.6311 21C11.3147 21 12.1004 20.4451 12.3657 19.7569L14.8246 13.5527C14.896 13.3751 15.1103 13.2198 15.2939 13.2198L18.3549 13.2198C19.3139 13.2198 20.4465 12.4539 20.8852 11.5216C21.0383 11.1887 21.0383 10.8002 20.8852 10.4673C20.4465 9.53496 19.3037 8.76915 18.3447 8.76915L15.2837 8.76915C15.1001 8.76915 14.8858 8.61376 14.8144 8.43618L12.3555 2.24306C12.1004 1.55494 11.3147 1 10.6311 1L9.31495 0.999999C8.45789 0.999999 8.03957 1.69922 8.37627 2.55383L10.5393 8.00333C10.7128 8.42508 10.4985 8.78024 10.07 8.78024L7.1621 8.78024C6.92743 8.78024 6.60093 8.63596 6.43769 8.45838L4.11139 5.93896C3.86651 5.67259 3.39717 5.5505 3.06047 5.67259L1.70346 6.16093C1.11169 6.36071 0.826002 7.09323 1.11169 7.70366Z" stroke="white" stroke-linecap="round" stroke-linejoin="round"/>
</svg>
