<svg width="30" height="36" viewBox="0 0 30 36" fill="none" xmlns="http://www.w3.org/2000/svg">
<path fill-rule="evenodd" clip-rule="evenodd" d="M3.59224 0.198113C2.16056 0.628888 0.90707 1.88927 0.343136 3.46533C-0.26893 5.17522 -0.181712 5.67684 1.59714 10.6889L3.20821 15.2281L2.61713 16.3332C0.909972 19.5246 0.0405165 24.8563 0.757552 27.7347C2.01309 32.7744 6.69951 35.6771 14.0655 35.9776C18.3049 36.1505 22.2485 35.3175 24.8362 33.7022C26.1639 32.8735 27.7852 31.1468 28.4337 29.8709C29.3231 28.1208 29.5651 26.8192 29.4596 24.3516C29.3434 21.6341 28.7656 19.2477 27.6557 16.9007L26.8323 15.1599L28.4475 10.5658C29.9678 6.24127 30.0579 5.90829 29.9809 4.89737C29.6552 0.615861 24.8017 -1.53212 21.7658 1.26167C20.5483 2.38232 20.1875 3.30972 19.5485 6.96292C19.2405 8.72295 18.9495 10.2041 18.9016 10.254C18.8536 10.3042 18.3987 10.2601 17.8908 10.1563C16.6998 9.91249 13.3076 9.91249 12.1176 10.1561C11.6097 10.2601 11.1588 10.3085 11.1159 10.2635C11.0729 10.2185 10.7839 8.73366 10.4738 6.96381C9.83119 3.29633 9.50621 2.45477 8.29044 1.31199C7.04634 0.142437 5.21816 -0.291014 3.59224 0.198113ZM6.35064 2.24438C7.84803 3.03402 8.0153 3.44998 8.88168 8.53879C9.23295 10.602 9.54632 11.957 9.72622 12.1893L10.0123 12.5585L11.6976 12.2218C13.8803 11.7853 16.3427 11.7871 18.3924 12.2264L19.9885 12.5685L20.2792 12.1932C20.4515 11.9705 20.7296 10.8825 20.9624 9.51919C21.7972 4.63256 21.9679 3.91091 22.4429 3.25975C24.1611 0.904412 27.8788 1.97028 28.1099 4.88471C28.1768 5.72841 28.017 6.29802 26.544 10.4685C25.642 13.0228 24.9038 15.2763 24.9038 15.4762C24.9038 15.676 25.1666 16.2479 25.488 16.7471C26.9463 19.0128 27.9336 23.5056 27.6041 26.3765C27.2117 29.7949 24.6172 32.2742 20.1766 33.4743C18.07 34.0435 14.2746 34.2413 11.8925 33.906C6.40611 33.1335 2.85746 30.3084 2.40173 26.3503C2.06037 23.3853 3.16622 18.5881 4.6643 16.5345C4.90649 16.2024 5.10466 15.7362 5.10466 15.4983C5.10466 15.2604 4.37499 13.0039 3.48318 10.4839C2.41232 7.45793 1.8617 5.65382 1.8617 5.17129C1.8617 4.3888 2.3053 3.30811 2.82997 2.81185C3.70336 1.98617 5.3559 1.71992 6.35064 2.24438ZM5.70102 22.7014C5.40369 22.9687 5.22277 23.3482 5.1603 23.8359C5.07871 24.4716 5.13436 24.6484 5.58001 25.1698C6.0091 25.672 6.21204 25.7712 6.81148 25.7712C7.41091 25.7712 7.61385 25.672 8.04295 25.1698C8.4886 24.6484 8.54424 24.4716 8.46266 23.8359C8.3396 22.8761 7.71985 22.2995 6.81148 22.2995C6.36907 22.2995 5.99869 22.4335 5.70102 22.7014ZM22.0865 22.7014C21.7892 22.9687 21.6083 23.3482 21.5458 23.8359C21.4642 24.4716 21.5198 24.6484 21.9655 25.1698C22.3946 25.672 22.5975 25.7712 23.197 25.7712C23.7909 25.7712 23.9999 25.6713 24.4091 25.1923C24.6812 24.8741 24.9038 24.4102 24.9038 24.1616C24.9038 23.5699 24.4738 22.7149 24.0598 22.4833C23.4929 22.166 22.5682 22.2681 22.0865 22.7014ZM13.7506 26.7302C13.3865 27.1508 13.3918 27.6258 13.7652 28.0575C14.0494 28.3857 14.0448 28.4158 13.6611 28.7406C13.4403 28.9276 13.1699 29.0805 13.0605 29.0805C12.673 29.0805 12.1026 28.5197 12.0972 28.1335C12.0888 27.5225 11.6945 27.1176 11.1084 27.1176C9.65999 27.1176 10.179 29.7419 11.8007 30.6186C12.5845 31.0424 13.8001 31.0105 14.5168 30.5474C15.0535 30.2005 15.1385 30.1898 15.3756 30.4376C15.7281 30.8059 16.7791 31.0385 17.5223 30.9123C18.3713 30.7683 19.5445 29.5602 19.7043 28.6653C19.8866 27.6447 19.5836 27.0805 18.8913 27.151C18.3528 27.2059 18.2905 27.2807 17.7326 28.5452C17.6675 28.6924 17.4095 28.8892 17.1591 28.9826C16.7861 29.1214 16.6366 29.0821 16.334 28.7657C15.9858 28.4015 15.981 28.3601 16.2524 28.0468C16.6508 27.5864 16.6124 27.0121 16.1609 26.6816C15.6134 26.2807 14.1136 26.3108 13.7506 26.7302Z" fill="#8B5CF6"/>
</svg>
